<?xml version="1.0" encoding="UTF-8" standalone="no"?>
<svg
   version="1.1"
   preserveAspectRatio="none"
   x="0px"
   y="0px"
   width="600px"
   height="600px"
   viewBox="0 0 600 600"
   id="svg150"
   sodipodi:docname="iconeInfo.svg"
   inkscape:version="1.1.1 (3bf5ae0d25, 2021-09-20)"
   xmlns:inkscape="http://www.inkscape.org/namespaces/inkscape"
   xmlns:sodipodi="http://sodipodi.sourceforge.net/DTD/sodipodi-0.dtd"
   xmlns:xlink="http://www.w3.org/1999/xlink"
   xmlns="http://www.w3.org/2000/svg"
   xmlns:svg="http://www.w3.org/2000/svg">
  <sodipodi:namedview
     id="namedview152"
     pagecolor="#ffffff"
     bordercolor="#666666"
     borderopacity="1.0"
     inkscape:pageshadow="2"
     inkscape:pageopacity="0"
     inkscape:pagecheckerboard="true"
     showgrid="false"
     inkscape:zoom="1.4033333"
     inkscape:cx="300"
     inkscape:cy="300.35629"
     inkscape:window-width="1920"
     inkscape:window-height="1027"
     inkscape:window-x="-8"
     inkscape:window-y="-8"
     inkscape:window-maximized="1"
     inkscape:current-layer="svg150" />
  <defs
     id="defs140">
    <path
       id="info_0_Layer0_0_1_STROKES"
       stroke="#FFFFFF"
       stroke-width="8"
       stroke-linejoin="round"
       stroke-linecap="round"
       fill="none"
       d=" M 65 32.5 Q 65 45.95 55.45 55.45 45.95 65 32.5 65 19.05 65 9.5 55.45 0 45.95 0 32.5 0 19.05 9.5 9.5 19.05 0 32.5 0 45.95 0 55.45 9.5 65 19.05 65 32.5 Z M 32.2 18.35 L 32.2 19.35" />
    <path
       id="info_0_Layer0_0_2_STROKES"
       stroke="#FFFFFF"
       stroke-width="7"
       stroke-linejoin="round"
       stroke-linecap="round"
       fill="none"
       d=" M 28.8 31.05 L 33.2 31.05 33.2 46.75 37.55 46.75 M 33.2 46.75 L 28.8 46.75" />
  </defs>
  <g
     transform="matrix( 7.199951171875, 0, 0, 7.199951171875, 66,66) "
     id="g148">
    <g
       transform="matrix( 1, 0, 0, 1, 0,0) "
       id="g146">
      <use
         xlink:href="#info_0_Layer0_0_1_STROKES"
         id="use142" />
      <use
         xlink:href="#info_0_Layer0_0_2_STROKES"
         id="use144" />
    </g>
  </g>
</svg>
