<?xml version="1.0" encoding="UTF-8" standalone="no"?>
<svg
   version="1.1"
   preserveAspectRatio="none"
   x="0px"
   y="0px"
   width="600px"
   height="600px"
   viewBox="0 0 600 600"
   id="svg11"
   sodipodi:docname="iconeFogo.svg"
   inkscape:version="1.1.1 (3bf5ae0d25, 2021-09-20)"
   xmlns:inkscape="http://www.inkscape.org/namespaces/inkscape"
   xmlns:sodipodi="http://sodipodi.sourceforge.net/DTD/sodipodi-0.dtd"
   xmlns:xlink="http://www.w3.org/1999/xlink"
   xmlns="http://www.w3.org/2000/svg"
   xmlns:svg="http://www.w3.org/2000/svg">
  <sodipodi:namedview
     id="namedview13"
     pagecolor="#ffffff"
     bordercolor="#666666"
     borderopacity="1.0"
     inkscape:pageshadow="2"
     inkscape:pageopacity="0"
     inkscape:pagecheckerboard="true"
     showgrid="false"
     inkscape:zoom="1.4033333"
     inkscape:cx="300"
     inkscape:cy="300.35629"
     inkscape:window-width="1920"
     inkscape:window-height="1027"
     inkscape:window-x="-8"
     inkscape:window-y="-8"
     inkscape:window-maximized="1"
     inkscape:current-layer="svg11" />
  <defs
     id="defs3">
    <path
       id="foguin_0_Layer0_0_1_STROKES"
       stroke="#FFFFFF"
       stroke-width="8"
       stroke-linejoin="round"
       stroke-linecap="round"
       fill="none"
       d=" M 51 47.7 Q 50.6 49.65 49.7 51.45 47.95 55.1 44.8 58 42.4 60.25 39.35 61.85 35.15 63.9 30.65 64.6 28.2 65.05 25.75 65 23.3 65.05 20.85 64.6 16.25 63.9 12.15 61.85 9.1 60.25 6.65 58 3.5 55.1 1.7 51.45 0.85 49.65 0.45 47.7 0.2 46.55 0.2 45.4 -0.8 37.05 3.9 30.6 7.45 37.4 14.65 36.85 17.75 36.7 18.9 34.6 22.25 29.65 18.9 22.8 16.45 15.55 18.9 10.25 21 4.65 28.7 0 30.5 12.7 46.25 27.8 53.05 36.15 51.3 45.4 51.25 46.55 51 47.7 Z" />
  </defs>
  <g
     transform="matrix( 7.199951171875, 0, 0, 7.199951171875, 114.05,66) "
     id="g9">
    <g
       transform="matrix( 1, 0, 0, 1, 0,0) "
       id="g7">
      <use
         xlink:href="#foguin_0_Layer0_0_1_STROKES"
         id="use5" />
    </g>
  </g>
</svg>
