<?xml version="1.0" encoding="UTF-8" standalone="no"?>
<svg
   version="1.1"
   preserveAspectRatio="none"
   x="0px"
   y="0px"
   width="600px"
   height="600px"
   viewBox="0 0 600 600"
   id="svg11"
   sodipodi:docname="iconeLampada.svg"
   inkscape:version="1.1.1 (3bf5ae0d25, 2021-09-20)"
   xmlns:inkscape="http://www.inkscape.org/namespaces/inkscape"
   xmlns:sodipodi="http://sodipodi.sourceforge.net/DTD/sodipodi-0.dtd"
   xmlns:xlink="http://www.w3.org/1999/xlink"
   xmlns="http://www.w3.org/2000/svg"
   xmlns:svg="http://www.w3.org/2000/svg">
  <sodipodi:namedview
     id="namedview13"
     pagecolor="#ffffff"
     bordercolor="#666666"
     borderopacity="1.0"
     inkscape:pageshadow="2"
     inkscape:pageopacity="0"
     inkscape:pagecheckerboard="true"
     showgrid="false"
     inkscape:zoom="1.4033333"
     inkscape:cx="300"
     inkscape:cy="300.35629"
     inkscape:window-width="1920"
     inkscape:window-height="1027"
     inkscape:window-x="-8"
     inkscape:window-y="-8"
     inkscape:window-maximized="1"
     inkscape:current-layer="svg11" />
  <defs
     id="defs3">
    <path
       id="lamp_0_Layer0_0_1_STROKES"
       stroke="#FFFFFF"
       stroke-width="8"
       stroke-linejoin="round"
       stroke-linecap="round"
       fill="none"
       d=" M 11.35 42.1 Q 10.95 40.15 9.8 38.3 8.9 36.95 7.95 35.65 5.75 32.55 3.35 29.5 1.35 27 0.6 23.85 0.2 22.25 0.05 20.7 -0.1 18.8 0.25 17.05 0.6 15.1 1.35 13.35 2.85 9.75 5.5 6.85 7.55 4.65 10.15 3.1 13.65 1.1 17.5 0.4 19.55 -0.05 21.65 0 23.7 -0.05 25.8 0.4 29.65 1.1 33.15 3.1 35.7 4.65 37.8 6.85 40.45 9.75 41.95 13.35 42.65 15.1 43 17.05 43.35 18.8 43.2 20.7 43.05 22.25 42.65 23.85 41.95 27 39.9 29.5 37.55 32.55 35.3 35.65 34.4 36.95 33.5 38.3 32.3 40.15 31.9 42.1 M 16.8 65 L 26.1 65 M 12.35 53.35 L 30.55 53.35" />
  </defs>
  <g
     transform="matrix( 7.199951171875, 0, 0, 7.199951171875, 144.3,66) "
     id="g9">
    <g
       transform="matrix( 1, 0, 0, 1, 0,0) "
       id="g7">
      <use
         xlink:href="#lamp_0_Layer0_0_1_STROKES"
         id="use5" />
    </g>
  </g>
</svg>
